
	<svg xmlns="http://www.w3.org/2000/svg" xmlns:xlink="http://www.w3.org/1999/xlink" version="1.1" width="20" height="20" viewBox="0 0 100 100">


		<defs>
			<linearGradient id="Gradient_2" gradientUnits="userSpaceOnUse" x1="50" y1="100" x2="50" y2="74" spreadMethod="pad">
<stop offset="0%" stop-color="#000000" stop-opacity="0.1"/>
<stop offset="100%" stop-color="#000000" stop-opacity="0.4"/>
</linearGradient><linearGradient id="Gradient_3" gradientUnits="userSpaceOnUse" x1="50" y1="53" x2="50" y2="0" spreadMethod="pad">
<stop offset="0%" stop-color="#FFFFFF" stop-opacity="0.1"/>
<stop offset="100%" stop-color="#FFFFFF" stop-opacity="0.4"/>
</linearGradient><linearGradient id="Gradient_4" gradientUnits="userSpaceOnUse" x1="55" y1="64" x2="55" y2="0" spreadMethod="pad">
<stop offset="0%" stop-color="#FFFFFF" stop-opacity="0.1"/>
<stop offset="100%" stop-color="#FFFFFF" stop-opacity="0.4"/>
</linearGradient><linearGradient id="Gradient_5" gradientUnits="userSpaceOnUse" x1="45" y1="64" x2="45" y2="0" spreadMethod="pad">
<stop offset="0%" stop-color="#FFFFFF" stop-opacity="0.1"/>
<stop offset="100%" stop-color="#FFFFFF" stop-opacity="0.4"/>
</linearGradient><g id="background">
<path fill="url(#background-gradient)" stroke="none" d=" M 98.3 1.65 Q 96.7 0 94.35 0 L 5.65 0 Q 3.3 0 1.65 1.65 0 3.35 0 5.7 L 0 80.15 Q 0 82.55 1.65 84.2 3.3 85.9 5.65 85.9 L 33.3 85.9 46.25 98.85 47.05 99.45 Q 48.15 100 49.75 100 51.25 100 52.35 99.45 52.95 99.2 53.15 98.85 L 66.1 85.9 94.35 85.9 Q 96.7 85.9 98.3 84.2 100 82.55 100 80.15 L 100 5.7 Q 100 3.35 98.3 1.65 Z"/>
</g><g id="middle-1">
<path fill="url(#Gradient_2)" stroke="none" d=" M 100 74.1 Q 99.9 76.35 98.3 77.95 96.7 79.6 94.35 79.6 L 66.1 79.6 53.7 92.05 Q 52.05 93.7 49.75 93.7 47.35 93.7 45.65 92.05 L 33.3 79.6 5.65 79.6 Q 3.3 79.6 1.65 77.95 0.1 76.35 0 74.1 L 0 80.15 Q 0 82.55 1.65 84.2 3.3 85.9 5.65 85.9 L 33.3 85.9 45.65 98.3 Q 47.35 100 49.75 100 52.05 100 53.7 98.3 L 66.1 85.9 94.35 85.9 Q 96.7 85.9 98.3 84.2 100 82.55 100 80.15 L 100 74.1 Z"/>
</g><mask id="mask">
<path fill="#FFFFFF" stroke="none" d=" M 98.3 1.65 Q 96.7 0 94.35 0 L 5.65 0 Q 3.3 0 1.65 1.65 0 3.35 0 5.7 L 0 74.1 Q 0.1 76.35 1.65 77.95 3.3 79.6 5.65 79.6 L 33.3 79.6 45.65 92.05 Q 47.35 93.7 49.75 93.7 52.05 93.7 53.7 92.05 L 66.1 79.6 94.35 79.6 Q 96.7 79.6 98.3 77.95 99.9 76.35 100 74.1 L 100 5.7 Q 100 3.35 98.3 1.65 Z"/>
</mask><g id="gloss-top">
<path fill="url(#Gradient_3)" stroke="none" d=" M 98.3 1.65 Q 96.7 0 94.35 0 L 5.65 0 Q 3.3 0 1.65 1.65 0 3.35 0 5.7 L 0 37.75 Q 9.9 44.95 22.55 48.85 35.65 52.95 50 52.95 64.3 52.95 77.4 48.85 90.1 44.95 100 37.75 L 100 5.7 Q 100 3.35 98.3 1.65 Z"/>
</g><g id="gloss-right">
<path fill="url(#Gradient_4)" stroke="none" d=" M 98.3 1.65 Q 96.65 0 94.3 0 L 9.65 0 Q 12.6 9.65 18.65 19.3 24.85 29.2 33.7 37.95 49.95 54 68.65 60.4 87.05 66.65 99.95 60.95 L 99.95 5.7 Q 99.95 3.35 98.3 1.65 Z"/>
</g><g id="gloss-left">
<path fill="url(#Gradient_5)" stroke="none" d=" M 81.35 19.3 Q 87.35 9.65 90.3 0 L 5.65 0 Q 3.3 0 1.65 1.65 0 3.35 0 5.7 L 0 60.95 Q 12.85 66.65 31.3 60.4 49.95 54 66.25 37.95 75.1 29.2 81.35 19.3 Z"/>
</g>
			
	<linearGradient id="background-gradient" x1="0" y1="0" y2="1" x2="0" >
		<stop stop-color="#bdd09f" offset="0%"/>
		<stop stop-color="#bdd09f" offset="100%"/>
	</linearGradient>

			
			
			<g transform="scale(3.3222586730647117) translate(0.10000191628932953 0.10000000149011612)" id="picture"><path d="M29.7 12.4c-.3-.4-.8-.5-1.2-.3-3.5 1.6-6.2 3.8-8 6.3.5-4 1.7-7.8 3.4-11 .2-.4.1-.9-.2-1.2-.4-.3-.9-.3-1.3 0-3.1 2.5-5.5 5.9-6.9 9.8 0 .1-.1.2-.1.4-.2-1.3-.5-2.5-.8-3.7-1.4-5-3.8-9.2-6.8-12.4C7.3 0 6.7-.1 6.3.2c-.4.2-.5.7-.3 1.2C7.7 5.6 8.9 10.7 9.4 16c-1.8-3.1-4.6-5.9-8-7.9C1 7.9.5 8 .2 8.3c-.3.4-.3.9-.1 1.3 4 5.4 5.5 12.7 4 19.2v.5s0 .1.1.2c0 .1.1.1.1.2s.1.1.1.1.1.1.2.1.1.1.2.1h20.4s.1-.1.2-.1.1-.1.1-.1l.1-.1c0-.1.1-.1.1-.2s0-.1.1-.2v-.5c-1.5-5.1 0-10.8 3.9-15 .3-.5.3-1 0-1.4zm-12.4 4.3c.7-1.8 1.5-3.5 2.6-5-1.2 3.8-1.8 8-1.7 12.2-.3 1.4-.3 2.7-.2 4.1h-2c-.3-4.1.1-8 1.3-11.3zm-4.8-3.5c1.2 4.3 1.6 9.4 1.2 14.8h-2.4c.2-1.7.3-3.5.4-5.3.1-5.5-.6-11.1-1.8-16.1 1 2 1.9 4.2 2.6 6.6zm-8.3-.5c1.7 1.6 3 3.3 4 5.3.7 1.4 1.2 3 1.5 4.8 0 1.8-.2 3.6-.4 5.2h-3c.9-5.1.1-10.6-2.1-15.3zM23.5 28h-3.4c-.2-1.3-.2-2.6.1-3.9.2-1.4.7-2.7 1.4-3.8.9-1.5 2.2-2.9 3.8-4.1-2 3.7-2.7 7.9-1.9 11.8z"/></g>
			
	<linearGradient id="picture-gradient" x1="0" y1="0" y2="1" x2="0" >
		<stop stop-color="#2b5217" offset="0%"/>
		<stop stop-color="#2b5217" offset="100%"/>
	</linearGradient>

		</defs>

		

			<use xlink:href="#background" fill="url(#background-gradient)" />

		<use xlink:href="#middle-1" />

			<g mask="url(#mask)">
				<g transform="
				        translate(
                                50 25
)
                            translate(0 0)  scale(0.55)  
                            translate(
                                -50 -25
)">
						<use xlink:href="#picture" fill="url(#picture-gradient)"  />
				</g>
			</g>

		



	</svg>
